<svg width="433" height="465" viewBox="0 0 433 465" fill="none" xmlns="http://www.w3.org/2000/svg">
<path d="M367.511 83.0767L351.581 38.2969C351.234 37.3215 350.701 36.4227 350.012 35.6504L348.095 33.5032L330.006 17.5067C329.565 17.1167 329.169 16.6793 328.824 16.2023L321.144 5.58472C319.157 2.83713 315.653 1.64089 312.401 2.59941L296.444 7.30164C288.987 8.95997 274.797 15.6596 273.744 15.9249C272.428 16.2566 248.741 31.5132 248.412 32.1766C248.083 32.8399 222.422 51.7448 221.106 53.4031C220.272 54.4542 214.152 61.1953 208.863 66.0399C206.575 68.1361 205.391 71.2632 206.025 74.3008L207.299 80.4043C207.507 81.3994 207.987 82.3173 208.686 83.0555C211.425 85.9483 210.266 90.7038 206.503 92.0119L205.446 92.3795C205.14 92.4861 204.825 92.5685 204.505 92.626L171.758 98.5097L153.143 102.327C152.614 102.435 152.075 102.49 151.536 102.49H141.162L106.618 105.475C96.6388 106.912 76.417 109.853 75.3643 110.118C74.4261 110.354 69.586 113.418 66.5257 115.412C65.8402 115.859 65.2347 116.408 64.7191 117.044C57.5859 125.833 44.4672 142.006 43.4525 143.285C42.3997 144.611 28.5383 159.315 21.7393 166.501C15.7078 174.35 3.51334 190.315 2.98696 191.376C2.50825 192.341 2.17465 199.415 2.03568 203.765C2.01004 204.567 2.11035 205.367 2.32734 206.14L6.93482 222.553L35.2548 293.018C36.747 296.73 40.7529 298.77 44.6329 297.792L45.7554 297.509L69.2749 290.238C70.0403 290.001 70.8368 289.881 71.6379 289.881H81.615C85.2489 289.881 88.1948 286.935 88.1948 283.301V278.936V272.302L88.8528 250.412L88.1948 235.156L84.7305 213.546C83.854 208.079 88.6625 203.396 94.1044 204.417L95.4368 204.667C96.5189 204.87 97.6313 204.847 98.7042 204.6L102.418 203.746C108.399 202.371 113.638 207.965 111.873 213.843L100.696 251.076L71.7454 347.259L63.7888 384.002C62.6647 389.193 66.8182 394.018 72.1186 393.679L101.32 391.809C102.427 391.739 103.537 391.899 104.579 392.28L177.35 418.898L235.581 442.447L274.757 462.34C277.874 463.923 281.657 463.299 284.1 460.799L300.95 443.559C301.668 442.824 302.238 441.958 302.628 441.008L321.118 396.014L349.117 320.262C351.117 314.85 358.015 313.271 362.171 317.275L363.744 318.79C366.351 321.301 366.947 325.25 365.197 328.419L330.988 390.375L319.807 412.92C318.089 416.382 319.093 420.577 322.192 422.888L346.296 440.86C347.678 441.89 349.355 442.447 351.078 442.447H370.267C372.492 442.447 374.616 441.52 376.13 439.889L416.305 396.605C416.67 396.212 416.994 395.783 417.273 395.325L429.832 374.714C430.596 373.46 431 372.02 431 370.552V340.625V243.094C431 241.385 430.453 239.72 429.438 238.345L373.756 162.853L361.987 142.682C361.086 141.138 360.728 139.338 360.97 137.567L367.9 86.8407C368.073 85.573 367.94 84.2822 367.511 83.0767Z" stroke="#EC8D35" stroke-width="3"/>
</svg>
